<?xml version="1.0" encoding="UTF-8"?>
<svg width="16px" height="16px" viewBox="0 0 16 16" version="1.1" xmlns="http://www.w3.org/2000/svg" xmlns:xlink="http://www.w3.org/1999/xlink">
    <!-- Generator: Sketch 55 (78076) - https://sketchapp.com -->
    <title>status / completed</title>
    <desc>Created with Sketch.</desc>
    <g id="status-/-completed" stroke="none" stroke-width="1" fill="none" fill-rule="evenodd">
        <g>
            <rect id="Rectangle-Copy-2" stroke="#979797" fill="#D8D8D8" opacity="0" x="0.5" y="0.5" width="15" height="15"></rect>
            <path d="M8,0 C3.5888,0 0,3.5888 0,8 C0,12.4112 3.5888,16 8,16 C12.4112,16 16,12.4112 16,8 C16,3.5888 12.4112,0 8,0 M8,14.4 C4.4712,14.4 1.6,11.5288 1.6,8 C1.6,4.4712 4.4712,1.6 8,1.6 C11.5288,1.6 14.4,4.4712 14.4,8 C14.4,11.5288 11.5288,14.4 8,14.4 M9.8344,5.8344 L7.2,8.4688 L6.1656,7.4344 C5.8528,7.1216 5.3472,7.1216 5.0344,7.4344 C4.7216,7.7472 4.7216,8.2528 5.0344,8.5656 L6.6344,10.1656 C6.7904,10.3216 6.9952,10.4 7.2,10.4 C7.4048,10.4 7.6096,10.3216 7.7656,10.1656 L10.9656,6.9656 C11.2784,6.6528 11.2784,6.1472 10.9656,5.8344 C10.6528,5.5216 10.1472,5.5216 9.8344,5.8344" id="Icon" fill="#5DB082"></path>
        </g>
    </g>
</svg>