<?xml version="1.0" encoding="UTF-8" ?>
<svg width="24px" height="24px" viewBox="0 0 24 24" version="1.1" xmlns="http://www.w3.org/2000/svg" xmlns:xlink="http://www.w3.org/1999/xlink">
  <!-- Generator: Sketch 59.1 (86144) - https://sketch.com -->
  <title>offline icon</title>
  <desc>Created with Sketch.</desc>
  <g id="offline-icon" stroke="none" stroke-width="1" fill="none" fill-rule="evenodd">
    <g id="header-/-info">
      <g>
        <rect id="Rectangle" stroke="#979797" fill="#D8D8D8" opacity="0" x="0" y="0" width="24" height="24"></rect>
        <path d="M5.42856756,18.5714272 C8.25891743,21.3994833 12.7040883,21.8055556 16,19.5371417 L4.46289099,8 C2.19444194,11.2958874 2.60050255,15.7411026 5.42856756,18.5714272 Z M11.2448012,11 C10.7772103,10.9995362 10.3289065,11.1863406 10,11.5186989 L12.4812479,14 C12.985934,13.4991977 13.1384975,12.7433281 12.867571,12.0859774 C12.5966446,11.4286267 11.9557941,10.999762 11.2448012,11 L11.2448012,11 Z M10.7333333,3 C10.3283245,3 10,3.32832452 10,3.73333333 C10,4.13834215 10.3283245,4.46666667 10.7333333,4.46666667 C15.5911356,4.47222335 19.5277766,8.40886438 19.5333333,13.2666667 C19.5333333,13.6716755 19.8616579,14 20.2666667,14 C20.6716755,14 21,13.6716755 21,13.2666667 C20.9936469,7.59917686 16.4008231,3.00635309 10.7333333,3 L10.7333333,3 Z M10.7787404,6 C10.3486539,6 10,6.34865395 10,6.77874039 C10,7.20882683 10.3486539,7.55748077 10.7787404,7.55748077 C13.9052878,7.56102987 16.4389701,10.0947122 16.4425192,13.2212596 C16.4425192,13.6513461 16.7911732,14 17.2212596,14 C17.6513461,14 18,13.6513461 18,13.2212596 C17.995601,9.23491896 14.7651511,6.0044377 10.7788105,6 L10.7787404,6 Z" id="satellite-signal" fill="#EA5428" fill-rule="nonzero"></path>
      </g>
    </g>
  </g>
</svg>
