<?xml version="1.0" encoding="UTF-8"?>
<svg width="16px" height="16px" viewBox="0 0 16 16" version="1.1" xmlns="http://www.w3.org/2000/svg" xmlns:xlink="http://www.w3.org/1999/xlink">
    <!-- Generator: Sketch 55 (78076) - https://sketchapp.com -->
    <title>status / open</title>
    <desc>Created with Sketch.</desc>
    <defs>
        <path d="M8,0 C3.5888,0 0,3.5888 0,8 C0,12.4112 3.5888,16 8,16 C12.4112,16 16,12.4112 16,8 C16,3.5888 12.4112,0 8,0 M8,14.4 C4.4712,14.4 1.6,11.5288 1.6,8 C1.6,4.4712 4.4712,1.6 8,1.6 C11.5288,1.6 14.4,4.4712 14.4,8 C14.4,11.5288 11.5288,14.4 8,14.4 M8.5656,4.2344 C8.2528,3.9216 7.7472,3.9216 7.4344,4.2344 L5.0344,6.6344 C4.7216,6.9472 4.7216,7.4528 5.0344,7.7656 C5.3472,8.0784 5.8528,8.0784 6.1656,7.7656 L7.2,6.7312 L7.2,11.2 C7.2,11.6424 7.5584,12 8,12 C8.4416,12 8.8,11.6424 8.8,11.2 L8.8,6.7312 L9.8344,7.7656 C9.9904,7.9216 10.1952,8 10.4,8 C10.6048,8 10.8096,7.9216 10.9656,7.7656 C11.2784,7.4528 11.2784,6.9472 10.9656,6.6344 L8.5656,4.2344 Z" id="path-1"></path>
    </defs>
    <g id="status-/-open" stroke="none" stroke-width="1" fill="none" fill-rule="evenodd">
        <g>
            <rect id="Rectangle" stroke="#979797" fill="#D8D8D8" opacity="0" x="0.5" y="0.5" width="15" height="15"></rect>
            <mask id="mask-2" fill="white">
                <use xlink:href="#path-1"></use>
            </mask>
            <use id="Icon-Copy" fill="#5EBAFF" xlink:href="#path-1"></use>
        </g>
    </g>
</svg>