<?xml version="1.0" encoding="UTF-8"?>
<svg width="16px" height="16px" viewBox="0 0 16 16" version="1.1" xmlns="http://www.w3.org/2000/svg" xmlns:xlink="http://www.w3.org/1999/xlink">
    <!-- Generator: Sketch 55 (78076) - https://sketchapp.com -->
    <title>status / started</title>
    <desc>Created with Sketch.</desc>
    <defs>
        <path d="M8,0 C3.5888,0 0,3.5888 0,8 C0,12.4112 3.5888,16 8,16 C12.4112,16 16,12.4112 16,8 C16,3.5888 12.4112,0 8,0 M8,14.4 C4.4712,14.4 1.6,11.5288 1.6,8 C1.6,4.4712 4.4712,1.6 8,1.6 C11.5288,1.6 14.4,4.4712 14.4,8 C14.4,11.5288 11.5288,14.4 8,14.4 M8.8,7.66872 L8.8,3.99992 C8.8,3.55752 8.4416,3.19992 8,3.19992 C7.5584,3.19992 7.2,3.55752 7.2,3.99992 L7.2,7.99992 C7.2,8.21272 7.284,8.41592 7.4344,8.56552 L9.8344,10.96552 C9.9904,11.12152 10.1952,11.19992 10.4,11.19992 C10.6048,11.19992 10.8096,11.12152 10.9656,10.96552 C11.2784,10.65272 11.2784,10.14712 10.9656,9.83432 L8.8,7.66872 Z" id="path-1"></path>
    </defs>
    <g id="status-/-started" stroke="none" stroke-width="1" fill="none" fill-rule="evenodd">
        <g>
            <rect id="Rectangle-Copy-13" stroke="#979797" fill="#D8D8D8" opacity="0" x="0.5" y="0.5" width="15" height="15"></rect>
            <mask id="mask-2" fill="white">
                <use xlink:href="#path-1"></use>
            </mask>
            <use id="Icon" fill="#306ED8" xlink:href="#path-1"></use>
        </g>
    </g>
</svg>