<?xml version="1.0" encoding="UTF-8"?>
<svg width="16px" height="16px" viewBox="0 0 16 16" version="1.1" xmlns="http://www.w3.org/2000/svg" xmlns:xlink="http://www.w3.org/1999/xlink">
    <!-- Generator: Sketch 55 (78076) - https://sketchapp.com -->
    <title>status / cancelled</title>
    <desc>Created with Sketch.</desc>
    <defs>
        <path d="M8,0 C3.5888,0 0,3.5888 0,8 C0,12.4112 3.5888,16 8,16 C12.4112,16 16,12.4112 16,8 C16,3.5888 12.4112,0 8,0 M8,14.4 C4.4712,14.4 1.6,11.5288 1.6,8 C1.6,4.4712 4.4712,1.6 8,1.6 C11.5288,1.6 14.4,4.4712 14.4,8 C14.4,11.5288 11.5288,14.4 8,14.4 M10.9656,5.0344 C10.6528,4.7216 10.1472,4.7216 9.8344,5.0344 L8,6.8688 L6.1656,5.0344 C5.8528,4.7216 5.3472,4.7216 5.0344,5.0344 C4.7216,5.3472 4.7216,5.8528 5.0344,6.1656 L6.8688,8 L5.0344,9.8344 C4.7216,10.1472 4.7216,10.6528 5.0344,10.9656 C5.1904,11.1216 5.3952,11.2 5.6,11.2 C5.8048,11.2 6.0096,11.1216 6.1656,10.9656 L8,9.1312 L9.8344,10.9656 C9.9904,11.1216 10.1952,11.2 10.4,11.2 C10.6048,11.2 10.8096,11.1216 10.9656,10.9656 C11.2784,10.6528 11.2784,10.1472 10.9656,9.8344 L9.1312,8 L10.9656,6.1656 C11.2784,5.8528 11.2784,5.3472 10.9656,5.0344" id="path-1"></path>
    </defs>
    <g id="status-/-cancelled" stroke="none" stroke-width="1" fill="none" fill-rule="evenodd">
        <g>
            <rect id="Rectangle-Copy-15" stroke="#979797" fill="#D8D8D8" opacity="0" x="0.5" y="0.5" width="15" height="15"></rect>
            <mask id="mask-2" fill="white">
                <use xlink:href="#path-1"></use>
            </mask>
            <use id="Icon" fill="#D0021B" xlink:href="#path-1"></use>
        </g>
    </g>
</svg>