<?xml version="1.0" encoding="UTF-8"?>
<svg width="16px" height="16px" viewBox="0 0 16 16" version="1.1" xmlns="http://www.w3.org/2000/svg" xmlns:xlink="http://www.w3.org/1999/xlink">
    <!-- Generator: Sketch 55 (78076) - https://sketchapp.com -->
    <title>status / closed</title>
    <desc>Created with Sketch.</desc>
    <defs>
        <path d="M1.6,8 C1.6,6.5232 2.108,5.1656 2.9504,4.0824 L11.9176,13.0496 C10.8336,13.892 9.4768,14.4 8,14.4 C4.4712,14.4 1.6,11.5288 1.6,8 M13.0496,11.9176 L4.0824,2.9504 C5.1664,2.108 6.5232,1.6 8,1.6 C11.5288,1.6 14.4,4.4712 14.4,8 C14.4,9.4768 13.892,10.8344 13.0496,11.9176 M0,8 C0,12.4112 3.5888,16 8,16 C12.4112,16 16,12.4112 16,8 C16,3.5888 12.4112,0 8,0 C3.5888,0 0,3.5888 0,8" id="path-1"></path>
    </defs>
    <g id="status-/-closed" stroke="none" stroke-width="1" fill="none" fill-rule="evenodd">
        <g>
            <rect id="Rectangle-Copy-14" stroke="#979797" fill="#D8D8D8" opacity="0" x="0.5" y="0.5" width="15" height="15"></rect>
            <mask id="mask-2" fill="white">
                <use xlink:href="#path-1"></use>
            </mask>
            <use id="Icon" fill="#A8B2C7" xlink:href="#path-1"></use>
        </g>
    </g>
</svg>